# xmcd
#
# Track frame offsets: 
#        150
#        15506
#        32510
#        48408
#        63939
#        77780
#        93652
#        109027
#        123303
#        138405
#        155089
#        172155
#        187970
#        202394
#        216757
#        229902
#        247140
#        257586
#
# Disc length: 3624 seconds
#
# Revision: 0
# Processed by: cddbd v1.5.2PL0 Copyright (c) Steve Scherf et al.
# Submitted via: ExactAudioCopyFreeDBPlugin 1.0
#
DISCID=040e2612
DTITLE=Lee Kernaghan - Beautiful Noise
DYEAR=2013
DGENRE=Country
TTITLE0=Beautiful Noise
TTITLE1=Dirt Music
TTITLE2=Bang Bang
TTITLE3=Keeping On
TTITLE4=Ute Me
TTITLE5=Splash
TTITLE6=Flying With The King
TTITLE7=It's Only County
TTITLE8=New Kind Of High
TTITLE9=Party Town
TTITLE10=Peace Love and Country
TTITLE11=Lights On The Hill
TTITLE12=I'm Already Taken
TTITLE13=Australian Boy
TTITLE14=Get Off My Land
TTITLE15=Mr. Goodtime
TTITLE16=Hero To The Nation
TTITLE17=Beautiful Noise (with Craig Lowndes)
EXTD=
EXTT0=
EXTT1=
EXTT2=
EXTT3=
EXTT4=
EXTT5=
EXTT6=
EXTT7=
EXTT8=
EXTT9=
EXTT10=
EXTT11=
EXTT12=
EXTT13=
EXTT14=
EXTT15=
EXTT16=
EXTT17=
PLAYORDER=
